<?xml version="1.0" encoding="utf-8"?>
<!-- Generator: Adobe Illustrator 24.3.0, SVG Export Plug-In . SVG Version: 6.00 Build 0)  -->
<svg version="1.1" id="Layer_1" xmlns="http://www.w3.org/2000/svg" xmlns:xlink="http://www.w3.org/1999/xlink" x="0px" y="0px"
	 viewBox="0 0 500 500" style="enable-background:new 0 0 500 500;" xml:space="preserve">
<style type="text/css">
	.st0{fill:#CD79EE;}
	.st1{fill:#67A9C8;}
</style>
<g id="DhIXOy.tif_1_">
	<g>
		<path class="st0" d="M405.07,223.74c-1.89,4.93-3.55,9.97-5.76,14.75c-1.17,2.52-4.38,4.46-4.67,6.9
			c-0.28,2.31,2.26,4.86,3.2,7.43c7.25,19.8-4.28,41.31-24.91,46.36c-2.39,0.59-3.32,1.35-3.44,3.97
			c-0.81,16.75-15.24,31.05-32.51,32.45c-0.78,0.06-1.56,0.13-2.56,0.21c-0.38,9.58-3.68,17.95-10.44,24.75
			c-6.77,6.81-15.13,10.14-24.85,10.58c-0.75,10.08-5.09,17.94-14.18,22.45c-9.1,4.52-17.97,3.36-26.88-2.57
			c-0.09,0.25-0.15,0.68-0.36,1c-3.43,5.22-8.39,5.74-12.85,1.29c-4.61-4.6-9.17-9.26-13.75-13.89
			c-34.07-34.46-68.12-68.94-102.23-103.36c-15.28-15.42-24.37-33.73-26.54-55.4c-0.06-0.57-0.31-1.11-0.48-1.67
			c0-4.54,0-9.08,0-13.62c1-5.41,1.61-10.93,3.06-16.22c17.85-65.14,95.23-86.83,143.44-42.38c0.46,0.42,1.01,0.74,1.65,1.19
			c0.46-1.17,0.8-2.09,1.18-2.98c8.32-19.59,32.01-27.48,50.35-16.69c1.86,1.09,3.12,1.15,5.01,0.05
			c13.89-8.12,30.87-6.05,42.24,5.16c1.41,1.39,2.59,1.57,4.41,1.13c24.78-5.99,48.1,13.56,46.63,38.99
			c-0.41,7.06-2.7,13.46-6.44,19.22c1.84,2.22,3.59,4.22,5.2,6.32c3.57,4.63,5.01,10.16,6.45,15.68
			C405.07,217.82,405.07,220.78,405.07,223.74z M356.76,144.49c0.73,2.5,1.6,4.83,2.06,7.23c0.45,2.41,0.67,4.89,0.65,7.34
			c-0.02,2.65-2.19,4.65-4.72,4.8c-2.36,0.13-4.59-1.58-5.15-4.04c-0.17-0.76-0.16-1.57-0.2-2.35
			c-0.58-11.99-10.03-22.25-21.81-23.68c-12.31-1.49-23.71,5.72-27.36,17.35c-0.34,1.1-0.52,2.25-0.67,2.91
			c3.05,1.97,5.9,3.52,8.39,5.53c2.29,1.85,2.35,4.76,0.63,6.87c-1.75,2.15-4.72,2.43-7.16,0.69c-5.98-4.27-9.16-4.3-14.91-0.1
			c-2.49,1.82-5.33,1.63-7.17-0.49c-1.8-2.06-1.72-5.24,0.65-7.1c2.21-1.74,4.85-2.91,7.26-4.4c0.76-0.47,1.87-1.08,1.99-1.77
			c1.03-5.94,3.46-11.26,7.18-16.34c-7.65-4.12-15.31-4.69-22.9-1.14c-10.36,4.84-15.02,13.34-15.01,24.71
			c0.05,53.78,0.02,107.55,0.02,161.33c0,16.38-0.09,32.76,0.06,49.14c0.08,8.58,6.41,14.92,14.62,15.13
			c8.23,0.21,14.74-5.62,15.6-13.88c0.19-1.83-0.26-2.79-2.15-3.51c-2.65-1-5.2-2.37-7.57-3.93c-2.16-1.42-2.52-4.17-1.28-6.33
			c1.31-2.27,3.91-3.16,6.37-2.1c0.99,0.43,1.89,1.05,2.85,1.56c13.17,6.98,29.37,1.23,35.16-12.48
			c5.69-13.47-1.34-29.01-15.26-33.5c-1.32-0.43-3-0.09-4.44,0.23c-4.48,1.01-8.87,2.49-13.4,3.18c-2.94,0.45-5.2-2.02-5.33-4.77
			c-0.12-2.71,1.96-4.89,4.97-5.18c0.49-0.05,0.99-0.04,1.48-0.09c10.5-1.05,18-8.68,18.81-19.13c0.32-4.05,2.24-6.26,5.29-6.1
			c3.2,0.17,5.03,2.78,4.78,6.86c-0.04,0.59-0.03,1.21-0.21,1.76c-1.56,4.91-3.16,9.81-4.81,14.88
			c10.97,6.92,11.68,7.75,18.29,20.65c0.34,0.66,1.47,1.25,2.26,1.28c12.23,0.55,24.64-11.26,24.87-23.47
			c0.03-1.83-0.69-2.21-2.29-2.59c-12.52-2.95-21.26-10.37-25.73-22.51c-0.65-1.76-1.71-2.21-3.26-2.8
			c-3.83-1.46-7.69-2.99-11.24-5.02c-3.3-1.89-3.87-4.93-2.11-7.5c1.75-2.56,4.66-2.85,7.78-0.76c9.5,6.35,19.7,5.2,27.52-3.01
			c0.85-0.89,1.95-1.75,3.09-2.1c2.17-0.65,4.16,0.02,5.42,1.99c1.47,2.3,1.01,4.47-0.71,6.51c-4.33,5.16-9.88,8.35-16.31,10.06
			c1.71,7.53,10.78,14.67,19.79,15.69c10.66,1.21,20.95-4.31,25.7-13.81c4.18-8.35,3.32-19.43-1.74-24.79
			c-3.33,0.99-6.49,2.09-9.73,2.84c-2.75,0.63-5.15-1.07-5.84-3.73c-0.67-2.57,0.77-5.09,3.48-6.01c0.84-0.28,1.72-0.44,2.58-0.65
			c11.28-2.81,19.27-13.37,19.02-25.14c-0.24-11.54-8.71-21.62-20.19-23.82c-4.66-0.89-9.31-0.86-13.24,0.92
			c1.08,4.11,2.32,7.85,3.01,11.68c0.68,3.8-1.29,6.48-4.4,6.8c-3.24,0.33-5.16-1.61-5.63-5.68c-0.99-8.6-6.25-13.72-14.84-14.45
			c-3.38-0.29-5.32-2.2-5.26-5.16c0.07-3.05,2.34-5.31,5.78-4.81c3.74,0.54,7.43,1.71,11.02,2.96c1.46,0.51,2.5,0.85,4.04,0.14
			c6.43-2.95,13.18-4.05,20.18-2.67c3.15,0.62,6.23,1.6,9.35,2.42c6.69-8.4,6.72-22.07,0.06-31.53
			C378.48,146.44,365.93,141.48,356.76,144.49z M247.66,381.84c0.25-0.1,0.5-0.19,0.75-0.29c0-0.96,0-1.92,0-2.88
			c0-69.75-0.08-139.51,0.15-209.26c0.02-6.27-1.73-10.63-6.35-14.76c-20.71-18.53-44.62-25.5-71.53-18.63
			c-58.61,14.98-78.48,88.25-35.91,131.52c34.87,35.45,69.89,70.75,104.84,106.12C242.32,376.37,244.99,379.11,247.66,381.84z"/>
		<path class="st0" d="M273.66,238.35c0.4-17.96,16.01-33.6,34.02-34.09c3.83-0.1,6.11,1.58,6.33,4.66c0.23,3.27-1.8,5.18-5.82,5.46
			c-13.78,0.98-23.42,10.7-24.4,24.6c-0.27,3.79-2.18,5.79-5.37,5.62C275.3,244.42,273.57,242.15,273.66,238.35z"/>
		<path class="st0" d="M122.11,208.52c1.74-32.84,26.24-59.72,57.7-64.14c3.02-0.42,6.09-0.58,9.14-0.64
			c3.21-0.06,5.23,1.82,5.37,4.66c0.15,2.97-1.84,4.96-5.08,5.4c-5.35,0.72-10.85,1.01-16,2.46c-21.89,6.18-38.51,26.56-40.64,49.27
			c-0.11,1.18-0.24,2.36-0.37,3.53c-0.38,3.56-2.37,5.47-5.47,5.24C123.9,214.09,122.06,211.8,122.11,208.52z"/>
		<path class="st0" d="M136.32,233.87c-0.26,3.35-1.6,5.04-4.06,5.62c-2.38,0.57-4.39-0.39-5.4-2.54c-1.03-2.19-1.87-4.56-2.31-6.94
			c-0.46-2.48,0.81-4.37,3.21-5.31c2.3-0.9,4.55-0.39,5.67,1.69C134.81,228.93,135.55,231.81,136.32,233.87z"/>
	</g>
</g>
<path class="st1" d="M426.62,73.26C379.37,26,316.68,0,249.87,0C183.07,0,120.38,26,73.13,73.26
	c-91.33,91.33-97.67,237.52-15.75,336.15c-8.04,16.17-20.93,34.99-40.06,44.4c-9.2,4.54-14.38,14.38-12.79,24.52
	c1.58,10.15,9.41,18.08,19.56,19.66c4.75,0.74,11.52,1.48,19.76,1.48c22.1,0,54.66-5.18,87.95-29.17
	c37.1,19.98,77.7,29.7,117.97,29.7c64.69,0,128.75-25.05,176.95-73.25c47.25-47.25,73.26-109.94,73.26-176.75
	C499.98,183.19,473.87,120.51,426.62,73.26L426.62,73.26z M406.43,406.56c-71.35,71.35-181.82,85.52-268.71,34.46
	c-5.71-3.39-12.79-2.33-17.34,2.22c-0.42,0.21-0.85,0.53-1.16,0.84c-28.65,22.2-56.77,26.85-75.37,26.85h-0.1
	c21.46-15.64,34.99-38.9,42.92-56.97c1.27-3.07,1.48-6.24,0.74-9.2c-0.31-2.85-1.48-5.71-3.49-8.04
	C6.53,309.3,10.55,176.11,93.21,93.45c86.36-86.36,226.85-86.36,313.11,0C492.79,179.81,492.79,320.19,406.43,406.56L406.43,406.56z
	 M406.43,406.56"/>
</svg>
